<?xml version="1.0" encoding="utf-8"?>
<!-- Generator: Adobe Illustrator 15.0.2, SVG Export Plug-In  -->
<!DOCTYPE svg PUBLIC "-//W3C//DTD SVG 1.1//EN" "http://www.w3.org/Graphics/SVG/1.1/DTD/svg11.dtd" [
	<!ENTITY ns_flows "http://ns.adobe.com/Flows/1.0/">
]>
<svg version="1.1"
	 xmlns="http://www.w3.org/2000/svg" xmlns:xlink="http://www.w3.org/1999/xlink" xmlns:a="http://ns.adobe.com/AdobeSVGViewerExtensions/3.0/"
	 x="0px" y="0px" width="487px" height="92px" viewBox="-0.567 -1.059 487 92"
	 overflow="visible" enable-background="new -0.567 -1.059 487 92" xml:space="preserve">
<defs>
</defs>
<path d="M21.255,85.664c-3.687,4.121-8.893,4.664-11.387,4.664s-4.229,0-6.724,0c-1.084,0-2.06,0.107-2.603-0.76
	C0,88.808,0,87.617,0,86.857c0-26.678,0-43.052,0-69.079c0-1.084,0-2.169,0.65-2.819c0.868-0.759,1.735-0.542,2.603-0.542
	c2.386,0,4.121,0,6.506,0c3.47,0,8.133,0.868,11.387,3.796c3.253,3.036,4.013,7.374,4.013,11.278c0,17.135,0,28.521,0,45.547
	C25.159,77.64,25.159,81.109,21.255,85.664z M18.11,29.49c0-2.386-0.434-4.337-2.277-6.29c-1.193-1.084-2.06-1.626-4.988-1.626
	c-1.952,0-3.037,0-3.47,0.759c-0.325,0.651-0.325,1.193-0.325,1.844c0,21.364,0,34.919,0,55.632c0,1.193-0.108,2.387,0.65,3.145
	c0.434,0.434,2.061,0.326,2.495,0.326c1.193,0,3.795-0.326,5.748-2.387c2.168-2.385,2.168-4.121,2.168-5.746
	C18.11,58.335,18.11,46.408,18.11,29.49z"/>
<path d="M58.589,90.328c-4.663,0-11.604,0-16.267,0c-1.735,0-3.579,0.217-4.338-0.434c-0.867-0.76-0.65-2.387-0.65-3.688
	c0-26.027,0-42.51,0-68.537c0-1.41,0.108-1.518,0.759-2.386c0.651-0.868,1.41-0.868,2.495-0.868c5.964,0,12.037,0,18.001,0
	c1.301,0,1.301,1.302,1.301,3.253c0,2.061,0,2.928-1.41,2.928c-2.928,0-8.784,0-10.844,0c-0.868,0-2.169,0.108-2.495,0.542
	C44.6,21.899,44.6,21.791,44.6,23.2c0,7.266,0,13.339,0,20.604c0,0.976-0.217,2.169,0.651,2.82c0.759,0.543,1.518,0.434,2.386,0.434
	c1.843,0,4.121,0,5.097,0c1.301,0,1.518,0.867,1.518,3.145c0,2.17-0.108,3.037-1.518,3.037c-0.868,0-2.928,0-4.88,0
	c-1.084,0-2.277,0.107-2.711,0.324c-0.976,0.652-0.759,1.736-0.759,3.146c0,8.674,0,14.639,0,23.314c0,1.41,0,3.471,0.542,3.795
	c0.542,0.326,2.061,0.434,3.253,0.434c2.928,0,7.375,0,10.302,0c1.301,0,1.41,0.652,1.41,3.037
	C59.891,89.677,59.782,90.328,58.589,90.328z"/>
<path d="M119.521,90.328c-11.609,0-18.705-8.256-18.705-18.061c0-19.35,0-34.7,0-54.05c0-9.933,7.095-18.188,18.705-18.188
	c12.126,0,18.189,8.772,18.189,18.188c0,1.548,0,5.547,0,6.966c0,1.29-1.032,1.677-6.966,1.677c-4.257,0-6.45,0.258-6.45-1.419
	c0-1.806,0-5.418,0-6.708c0-1.806-1.419-5.418-4.773-5.418c-3.999,0-4.902,3.999-4.902,7.353c0,16.512,0,31.991,0,48.632
	c0,3.613,0.903,7.354,4.902,7.354c3.741,0,4.773-3.096,4.773-5.16c0-1.807,0-3.74,0-6.707c0-1.807,1.161-1.678,6.837-1.678
	c5.418,0,6.579,0.129,6.579,2.451c0,1.936,0,5.031,0,6.707C137.71,82.974,131.518,90.328,119.521,90.328z"/>
<path d="M164.538,90.328c-11.868,0-18.705-7.998-18.705-18.576c0-19.35,0-34.055,0-53.276c0-11.223,7.998-18.447,18.705-18.447
	c11.094,0,18.834,7.224,18.834,18.447c0,18.962,0,34.055,0,53.276C183.372,82.587,177.051,90.328,164.538,90.328z M169.44,21.055
	c0-3.612-1.161-7.74-4.902-7.74c-3.87,0-4.902,4.128-4.902,7.74c0,16.641,0,31.089,0,47.858c0,3.611,0.129,7.74,4.902,7.74
	c4.515,0,4.902-4.129,4.902-7.74C169.44,52.144,169.44,37.696,169.44,21.055z"/>
<path d="M231.099,90.328c-3.354,0-4.773-0.258-5.676-3.484c-4.257-14.963-5.805-21.799-10.32-38.053
	c-0.774-2.838-1.806-7.611-2.709-7.611c-0.903,0-0.903,2.708-0.903,4.386c0,16.77,0,24.768,0,42.44c0,2.064-0.387,2.322-7.095,2.322
	c-6.45,0-6.45-0.258-6.45-2.193c0-32.25,0-55.469,0-86.3c0-1.806,0.258-1.806,5.934-1.806c5.547,0,6.192,0.516,7.224,4.128
	c2.709,10.578,6.45,24.38,10.449,38.054c0.258,1.29,0.774,3.354,1.548,3.354c0.903,0,0.903-2.452,0.903-3.871
	c0-13.674,0-24.509,0-39.344c0-2.064,0.387-2.322,6.837-2.322c6.579,0,6.708,0.129,6.708,2.193c0,20.897,0,52.116,0,84.364
	C237.549,89.941,237.678,90.328,231.099,90.328z"/>
<path d="M287.209,79.621c-4.385,7.869-7.352,10.707-16.641,10.707c-10.578,0-18.705-6.322-18.705-18.061c0-1.418,0-5.547,0-7.223
	c0-1.162,1.162-1.291,6.322-1.291s7.609,0,7.609,1.033c0,1.676,0,4.127,0,5.418c0,4.771,0.904,7.609,4.773,7.609
	c3.482,0,4.387-2.58,4.645-4.771c0.129-2.193,0.258-4.129,0.258-5.936c0-11.223-24.381-26.831-24.381-46.181
	c0-3.612,1.549-9.546,3.225-12.513c1.678-2.967,6.322-8.385,15.094-8.385c10.965,0,18.316,8.127,18.316,17.543
	c0,1.935,0,4.128,0,6.321c0,0.903-1.805,0.774-6.191,0.774c-4.902,0-7.482,0-7.482-0.903c0-1.677,0-4.773,0-5.934
	c0-3.612-2.449-5.805-4.643-5.805c-2.322,0-4.129,2.064-4.387,4.128c-0.258,1.935-0.387,3.483-0.387,5.16
	c0,15.222,24.639,25.67,24.639,46.698C289.274,71.88,288.758,76.783,287.209,79.621z"/>
<path d="M331.325,90.328c-5.547,0-19.221,0-24.768,0c-2.062,0-4.256,0.258-5.16-0.516c-1.031-0.904-0.773-2.838-0.773-4.387
	c0-30.959,0-50.567,0-81.527c0-1.677,0.129-1.806,0.902-2.838c0.775-1.032,1.678-1.032,2.969-1.032c7.094,0,19.607,0,26.701,0
	c1.549,0,1.549,1.032,1.549,6.063c0,5.805,0,6.579-1.678,6.579c-3.482,0-10.449,0-12.9,0c-1.031,0-2.578,0.129-2.967,0.645
	c-0.645,0.903-0.645,0.774-0.645,2.451c0,8.643,0,8.385,0,17.027c0,1.161-0.258,2.58,0.773,3.354
	c0.904,0.645,1.807,0.516,2.838,0.516c2.193,0,5.031,0,6.193,0c1.547,0,1.676,0.774,1.676,6.45c0,5.419,0,6.192-1.676,6.192
	c-1.033,0-3.484,0-5.805,0c-1.291,0-2.709,0.129-3.227,0.387c-1.16,0.773-0.902,2.064-0.902,3.74c0,10.32,0,8.902,0,19.221
	c0,1.678,0,4.129,0.645,4.516c0.646,0.387,2.451,0.516,3.871,0.516c3.482,0,8.771,0,12.254,0c1.549,0,1.678,0.516,1.678,6.191
	C332.874,89.812,332.745,90.328,331.325,90.328z"/>
<path d="M376.731,90.328c-6.191,0-6.707,0.129-6.707-2.193c0-10.449,0-23.736,0-29.67c0-4.514-1.549-8.127-4.773-8.127
	c-4.516,0-5.031-0.129-5.031,1.678c0,13.416,0,21.543,0,35.861c0,2.451-1.031,2.451-7.482,2.451c-5.289,0-6.32,0-6.32-2.838
	c0-25.541,0-58.565,0-83.462c0-1.29,0.129-2.58,0.516-3.225c0.775-1.032,1.678-0.774,3.355-0.774c2.967,0,9.287,0,12.77,0
	c5.547,0,11.223,1.548,15.094,5.289c3.869,3.612,5.289,8.772,5.289,14.19c0,5.031,0,6.192,0,10.965c0,3.741-0.518,6.192-2.193,8.514
	c-2.322,3.483-6.322,4.257-6.322,4.644c0,0.516,4.129,0.774,6.58,3.999c1.676,2.322,2.322,4.516,2.322,8.127
	c0,11.998,0,21.027,0,32.508C383.827,90.328,382.922,90.328,376.731,90.328z M369.637,22.216c0-2.709-0.129-5.16-1.807-7.095
	c-0.902-1.032-1.678-1.548-4.645-1.548c-1.16,0-2.064,0-2.58,0.645c-0.258,0.516-0.387,1.032-0.387,1.677
	c0,11.997,0,11.997,0,19.221c0,1.161,0,2.064,0.645,2.58c0.518,0.387,1.291,0.258,2.322,0.258c1.162,0,3.225-0.387,4.645-1.935
	c1.678-1.806,1.807-3.741,1.807-5.031C369.637,27.763,369.637,25.183,369.637,22.216z"/>
<path d="M424.069,88.392c-0.258,1.936-1.549,1.936-7.096,1.936c-5.934,0-7.223,0-7.48-2.193c-2.58-20.898-7.096-54.824-11.482-86.17
	c-0.258-1.935,0.646-1.935,7.096-1.935c6.838,0,6.967,0.387,7.354,2.322c1.289,13.029,2.709,39.603,4.256,54.051
	c0,0.516,0.129,1.289,0.516,1.289c0.518,0,0.646-0.645,0.646-1.289c1.805-14.578,3.74-42.184,5.16-54.051
	c0.258-2.193,0.645-2.193,6.836-2.193c6.32,0,7.354,0.129,7.096,1.935C432.454,33.568,427.036,65.431,424.069,88.392z"/>
<path d="M483.663,90.328c-5.547,0-19.221,0-24.768,0c-2.064,0-4.258,0.258-5.16-0.516c-1.031-0.904-0.773-2.838-0.773-4.387
	c0-30.959,0-50.567,0-81.527c0-1.677,0.129-1.806,0.902-2.838c0.773-1.032,1.678-1.032,2.967-1.032c7.096,0,19.607,0,26.703,0
	c1.547,0,1.547,1.032,1.547,6.063c0,5.805,0,6.579-1.676,6.579c-3.484,0-10.449,0-12.9,0c-1.031,0-2.58,0.129-2.967,0.645
	c-0.645,0.903-0.645,0.774-0.645,2.451c0,8.643,0,8.385,0,17.027c0,1.161-0.258,2.58,0.773,3.354
	c0.902,0.645,1.807,0.516,2.838,0.516c2.193,0,5.031,0,6.191,0c1.549,0,1.678,0.774,1.678,6.45c0,5.419,0,6.192-1.678,6.192
	c-1.031,0-3.482,0-5.805,0c-1.289,0-2.709,0.129-3.225,0.387c-1.16,0.773-0.902,2.064-0.902,3.74c0,10.32,0,8.902,0,19.221
	c0,1.678,0,4.129,0.645,4.516s2.451,0.516,3.869,0.516c3.484,0,8.771,0,12.256,0c1.547,0,1.676,0.516,1.676,6.191
	C485.209,89.812,485.081,90.328,483.663,90.328z"/>
</svg>
